<mxfile host="app.diagrams.net" modified="2022-08-03T13:03:53.692Z" agent="5.0 (Windows NT 10.0; Win64; x64) AppleWebKit/537.36 (KHTML, like Gecko) Chrome/103.0.0.0 Safari/537.36" etag="bsUFfaNDQ31F8COW4xFQ" version="20.2.2" type="github" pages="4">
  <diagram id="IVtKhJgVxS_b079tX_bR" name="IntroDM">
    <mxGraphModel dx="1635" dy="804" grid="1" gridSize="10" guides="1" tooltips="1" connect="1" arrows="1" fold="1" page="1" pageScale="1" pageWidth="1169" pageHeight="827" math="0" shadow="0">
      <root>
        <mxCell id="0" />
        <mxCell id="1" parent="0" />
        <mxCell id="iZVRpnwxdh2GqlOplQol-1" value="Introduction to &lt;br&gt;Data Mining" style="ellipse;shape=cloud;whiteSpace=wrap;html=1;fillColor=#FFFF33;strokeColor=none;fontFamily=Barlow Condensed;fontSource=https%3A%2F%2Ffonts.googleapis.com%2Fcss%3Ffamily%3DBarlow%2BCondensed;fontSize=32;fontStyle=1" parent="1" vertex="1">
          <mxGeometry x="60" y="10" width="456" height="271.52" as="geometry" />
        </mxCell>
        <mxCell id="iZVRpnwxdh2GqlOplQol-2" value="Safeguarding" style="rounded=1;whiteSpace=wrap;html=1;fontFamily=Barlow Condensed;fontSource=https%3A%2F%2Ffonts.googleapis.com%2Fcss%3Ffamily%3DBarlow%2BCondensed;fontSize=22;fillColor=#FFFF33;strokeColor=none;fontStyle=1" parent="1" vertex="1">
          <mxGeometry x="836" y="475" width="270" height="60" as="geometry" />
        </mxCell>
        <mxCell id="iZVRpnwxdh2GqlOplQol-3" value="Courseware" style="rounded=1;whiteSpace=wrap;html=1;fontFamily=Barlow Condensed;fontSource=https%3A%2F%2Ffonts.googleapis.com%2Fcss%3Ffamily%3DBarlow%2BCondensed;fontSize=22;fillColor=#FFFF33;strokeColor=none;fontStyle=1" parent="1" vertex="1">
          <mxGeometry x="836" y="750" width="270" height="60" as="geometry" />
        </mxCell>
        <mxCell id="iZVRpnwxdh2GqlOplQol-4" value="Introductions" style="rounded=1;whiteSpace=wrap;html=1;fontFamily=Barlow Condensed;fontSource=https%3A%2F%2Ffonts.googleapis.com%2Fcss%3Ffamily%3DBarlow%2BCondensed;fontSize=22;fillColor=#FFFF33;strokeColor=none;fontStyle=1" parent="1" vertex="1">
          <mxGeometry x="836" y="350" width="270" height="60" as="geometry" />
        </mxCell>
        <mxCell id="iZVRpnwxdh2GqlOplQol-5" value="Values &amp;amp; Principles" style="rounded=1;whiteSpace=wrap;html=1;fontFamily=Barlow Condensed;fontSource=https%3A%2F%2Ffonts.googleapis.com%2Fcss%3Ffamily%3DBarlow%2BCondensed;fontSize=22;fillColor=#FFFF33;strokeColor=none;fontStyle=1" parent="1" vertex="1">
          <mxGeometry x="836" y="412" width="270" height="60" as="geometry" />
        </mxCell>
        <mxCell id="iZVRpnwxdh2GqlOplQol-6" value="Wellbeing" style="rounded=1;whiteSpace=wrap;html=1;fontFamily=Barlow Condensed;fontSource=https%3A%2F%2Ffonts.googleapis.com%2Fcss%3Ffamily%3DBarlow%2BCondensed;fontSize=22;fillColor=#1ba1e2;strokeColor=none;fontStyle=0;fontColor=#ffffff;" parent="1" vertex="1">
          <mxGeometry x="886" y="540" width="270" height="60" as="geometry" />
        </mxCell>
        <mxCell id="iZVRpnwxdh2GqlOplQol-7" value="stressed, overwhelmed, struggling" style="rounded=1;whiteSpace=wrap;html=1;fontFamily=Barlow Condensed;fontSource=https%3A%2F%2Ffonts.googleapis.com%2Fcss%3Ffamily%3DBarlow%2BCondensed;fontSize=22;fillColor=#1ba1e2;strokeColor=#006EAF;fontStyle=0;fontColor=#ffffff;" parent="1" vertex="1">
          <mxGeometry x="886" y="680" width="270" height="60" as="geometry" />
        </mxCell>
        <mxCell id="iZVRpnwxdh2GqlOplQol-8" value="safeguarding@decoded.com" style="rounded=1;whiteSpace=wrap;html=1;fontFamily=Barlow Condensed;fontSource=https%3A%2F%2Ffonts.googleapis.com%2Fcss%3Ffamily%3DBarlow%2BCondensed;fontSize=22;fillColor=#1ba1e2;strokeColor=#006EAF;fontStyle=1;fontColor=#ffffff;" parent="1" vertex="1">
          <mxGeometry x="886" y="610" width="270" height="60" as="geometry" />
        </mxCell>
      </root>
    </mxGraphModel>
  </diagram>
  <diagram id="MynhFzCY_Ho8T6Nz2wVu" name="WhyDM?">
    <mxGraphModel dx="1798" dy="884" grid="1" gridSize="10" guides="1" tooltips="1" connect="1" arrows="1" fold="1" page="1" pageScale="1" pageWidth="1169" pageHeight="827" math="0" shadow="0">
      <root>
        <mxCell id="0" />
        <mxCell id="1" parent="0" />
        <mxCell id="WZqP-esmX5vL-M2uBSQN-1" value="What is Data Minining?" style="ellipse;shape=cloud;whiteSpace=wrap;html=1;fillColor=#FFFF33;strokeColor=none;fontFamily=Barlow Condensed;fontSource=https%3A%2F%2Ffonts.googleapis.com%2Fcss%3Ffamily%3DBarlow%2BCondensed;fontSize=32;fontStyle=1" parent="1" vertex="1">
          <mxGeometry x="10" y="10" width="340" height="230" as="geometry" />
        </mxCell>
        <mxCell id="WZqP-esmX5vL-M2uBSQN-2" value="Why is Data Mining Useful?" style="ellipse;shape=cloud;whiteSpace=wrap;html=1;fillColor=#FFFF33;strokeColor=none;fontFamily=Barlow Condensed;fontSource=https%3A%2F%2Ffonts.googleapis.com%2Fcss%3Ffamily%3DBarlow%2BCondensed;fontSize=32;fontStyle=1" parent="1" vertex="1">
          <mxGeometry x="950" y="10" width="200" height="230" as="geometry" />
        </mxCell>
        <mxCell id="gfJbTjdeo-92f3hb2D58-8" style="edgeStyle=orthogonalEdgeStyle;rounded=0;orthogonalLoop=1;jettySize=auto;html=1;exitX=1;exitY=0.5;exitDx=0;exitDy=0;entryX=0;entryY=0.5;entryDx=0;entryDy=0;fontFamily=Work Sans;fontSource=https%3A%2F%2Ffonts.googleapis.com%2Fcss%3Ffamily%3DWork%2BSans;fontSize=20;" edge="1" parent="1" source="gfJbTjdeo-92f3hb2D58-1" target="gfJbTjdeo-92f3hb2D58-7">
          <mxGeometry relative="1" as="geometry" />
        </mxCell>
        <mxCell id="gfJbTjdeo-92f3hb2D58-1" value="Large Datasets" style="ellipse;whiteSpace=wrap;html=1;aspect=fixed;fontFamily=Work Sans;fontSource=https%3A%2F%2Ffonts.googleapis.com%2Fcss%3Ffamily%3DWork%2BSans;fontSize=20;fillColor=#ffe6cc;strokeColor=#d79b00;" vertex="1" parent="1">
          <mxGeometry x="360" y="10" width="130" height="130" as="geometry" />
        </mxCell>
        <mxCell id="gfJbTjdeo-92f3hb2D58-2" value="Insights" style="ellipse;whiteSpace=wrap;html=1;aspect=fixed;fontFamily=Work Sans;fontSource=https%3A%2F%2Ffonts.googleapis.com%2Fcss%3Ffamily%3DWork%2BSans;fontSize=20;fillColor=#ffe6cc;strokeColor=#d79b00;" vertex="1" parent="1">
          <mxGeometry x="420" y="220" width="130" height="130" as="geometry" />
        </mxCell>
        <mxCell id="gfJbTjdeo-92f3hb2D58-3" value="Discovery" style="ellipse;whiteSpace=wrap;html=1;aspect=fixed;fontFamily=Work Sans;fontSource=https%3A%2F%2Ffonts.googleapis.com%2Fcss%3Ffamily%3DWork%2BSans;fontSize=20;fillColor=#ffe6cc;strokeColor=#d79b00;" vertex="1" parent="1">
          <mxGeometry x="60" y="210" width="130" height="130" as="geometry" />
        </mxCell>
        <mxCell id="gfJbTjdeo-92f3hb2D58-4" value="actionable" style="rounded=1;whiteSpace=wrap;html=1;fontFamily=Work Sans;fontSource=https%3A%2F%2Ffonts.googleapis.com%2Fcss%3Ffamily%3DWork%2BSans;fontSize=20;" vertex="1" parent="1">
          <mxGeometry x="500" y="310" width="120" height="60" as="geometry" />
        </mxCell>
        <mxCell id="gfJbTjdeo-92f3hb2D58-5" value="exploratory" style="rounded=1;whiteSpace=wrap;html=1;fontFamily=Work Sans;fontSource=https%3A%2F%2Ffonts.googleapis.com%2Fcss%3Ffamily%3DWork%2BSans;fontSize=20;" vertex="1" parent="1">
          <mxGeometry x="500" y="380" width="120" height="60" as="geometry" />
        </mxCell>
        <mxCell id="gfJbTjdeo-92f3hb2D58-6" value="Cleaning" style="ellipse;whiteSpace=wrap;html=1;aspect=fixed;fontFamily=Work Sans;fontSource=https%3A%2F%2Ffonts.googleapis.com%2Fcss%3Ffamily%3DWork%2BSans;fontSize=20;fillColor=#ffe6cc;strokeColor=#d79b00;" vertex="1" parent="1">
          <mxGeometry x="210" y="310" width="130" height="130" as="geometry" />
        </mxCell>
        <mxCell id="gfJbTjdeo-92f3hb2D58-7" value="Deriving (Smaller)&lt;br&gt;Datasets" style="ellipse;whiteSpace=wrap;html=1;aspect=fixed;fontFamily=Work Sans;fontSource=https%3A%2F%2Ffonts.googleapis.com%2Fcss%3Ffamily%3DWork%2BSans;fontSize=20;fillColor=#ffe6cc;strokeColor=#d79b00;" vertex="1" parent="1">
          <mxGeometry x="620" y="100" width="130" height="130" as="geometry" />
        </mxCell>
        <mxCell id="gfJbTjdeo-92f3hb2D58-9" value="Patterns" style="ellipse;whiteSpace=wrap;html=1;aspect=fixed;fontFamily=Work Sans;fontSource=https%3A%2F%2Ffonts.googleapis.com%2Fcss%3Ffamily%3DWork%2BSans;fontSize=20;fillColor=#ffe6cc;strokeColor=#d79b00;" vertex="1" parent="1">
          <mxGeometry x="110" y="530" width="130" height="130" as="geometry" />
        </mxCell>
        <mxCell id="gfJbTjdeo-92f3hb2D58-10" value="Trends" style="rounded=1;whiteSpace=wrap;html=1;fontFamily=Work Sans;fontSource=https%3A%2F%2Ffonts.googleapis.com%2Fcss%3Ffamily%3DWork%2BSans;fontSize=20;" vertex="1" parent="1">
          <mxGeometry x="190" y="620" width="120" height="60" as="geometry" />
        </mxCell>
        <mxCell id="gfJbTjdeo-92f3hb2D58-11" value="Predictions" style="ellipse;whiteSpace=wrap;html=1;aspect=fixed;fontFamily=Work Sans;fontSource=https%3A%2F%2Ffonts.googleapis.com%2Fcss%3Ffamily%3DWork%2BSans;fontSize=20;fillColor=#ffe6cc;strokeColor=#d79b00;" vertex="1" parent="1">
          <mxGeometry x="470" y="520" width="130" height="130" as="geometry" />
        </mxCell>
        <mxCell id="gfJbTjdeo-92f3hb2D58-12" value="Estimation" style="rounded=1;whiteSpace=wrap;html=1;fontFamily=Work Sans;fontSource=https%3A%2F%2Ffonts.googleapis.com%2Fcss%3Ffamily%3DWork%2BSans;fontSize=20;fillColor=#d5e8d4;strokeColor=#82b366;" vertex="1" parent="1">
          <mxGeometry x="642" y="560" width="170" height="60" as="geometry" />
        </mxCell>
        <mxCell id="gfJbTjdeo-92f3hb2D58-13" value="Simulation = Imagine" style="rounded=1;whiteSpace=wrap;html=1;fontFamily=Work Sans;fontSource=https%3A%2F%2Ffonts.googleapis.com%2Fcss%3Ffamily%3DWork%2BSans;fontSize=20;fillColor=#fff2cc;strokeColor=#d6b656;" vertex="1" parent="1">
          <mxGeometry x="642" y="740" width="328" height="60" as="geometry" />
        </mxCell>
        <mxCell id="gfJbTjdeo-92f3hb2D58-14" value="predicting the value of variable" style="shape=callout;whiteSpace=wrap;html=1;perimeter=calloutPerimeter;fontFamily=Work Sans;fontSource=https%3A%2F%2Ffonts.googleapis.com%2Fcss%3Ffamily%3DWork%2BSans;fontSize=20;fillColor=#d5e8d4;strokeColor=#82b366;" vertex="1" parent="1">
          <mxGeometry x="642" y="500" width="330" height="80" as="geometry" />
        </mxCell>
        <mxCell id="gfJbTjdeo-92f3hb2D58-15" value="rich understanding of causes/effects" style="shape=callout;whiteSpace=wrap;html=1;perimeter=calloutPerimeter;fontFamily=Work Sans;fontSource=https%3A%2F%2Ffonts.googleapis.com%2Fcss%3Ffamily%3DWork%2BSans;fontSize=20;fillColor=#fff2cc;strokeColor=#d6b656;" vertex="1" parent="1">
          <mxGeometry x="642" y="680" width="330" height="80" as="geometry" />
        </mxCell>
        <mxCell id="gfJbTjdeo-92f3hb2D58-16" value="" style="endArrow=none;html=1;rounded=0;fontFamily=Work Sans;fontSource=https%3A%2F%2Ffonts.googleapis.com%2Fcss%3Ffamily%3DWork%2BSans;fontSize=20;fillColor=#fff2cc;strokeColor=#d6b656;" edge="1" parent="1">
          <mxGeometry width="50" height="50" relative="1" as="geometry">
            <mxPoint x="390" y="670" as="sourcePoint" />
            <mxPoint x="1140" y="670" as="targetPoint" />
          </mxGeometry>
        </mxCell>
        <mxCell id="gfJbTjdeo-92f3hb2D58-17" value="Groups" style="rounded=1;whiteSpace=wrap;html=1;fontFamily=Work Sans;fontSource=https%3A%2F%2Ffonts.googleapis.com%2Fcss%3Ffamily%3DWork%2BSans;fontSize=20;" vertex="1" parent="1">
          <mxGeometry x="190" y="690" width="120" height="60" as="geometry" />
        </mxCell>
      </root>
    </mxGraphModel>
  </diagram>
  <diagram id="5P6c5RsYsG33mdZFpHvr" name="WhatIsML?">
    <mxGraphModel dx="1798" dy="884" grid="1" gridSize="10" guides="1" tooltips="1" connect="1" arrows="1" fold="1" page="1" pageScale="1" pageWidth="1169" pageHeight="827" math="0" shadow="0">
      <root>
        <mxCell id="0" />
        <mxCell id="1" parent="0" />
        <mxCell id="C5ij-oq2u1S5S8mKFe0q-1" value="What is ML?" style="ellipse;shape=cloud;whiteSpace=wrap;html=1;fillColor=#FFFF33;strokeColor=none;fontFamily=Barlow Condensed;fontSource=https%3A%2F%2Ffonts.googleapis.com%2Fcss%3Ffamily%3DBarlow%2BCondensed;fontSize=32;fontStyle=1" parent="1" vertex="1">
          <mxGeometry x="50" y="60" width="386.26" height="230" as="geometry" />
        </mxCell>
        <mxCell id="TfDn30RjzXp4CmwyCraX-14" style="edgeStyle=orthogonalEdgeStyle;rounded=0;orthogonalLoop=1;jettySize=auto;html=1;entryX=0.5;entryY=0;entryDx=0;entryDy=0;fontFamily=Work Sans;fontSource=https%3A%2F%2Ffonts.googleapis.com%2Fcss%3Ffamily%3DWork%2BSans;fontSize=20;" edge="1" parent="1" source="d73WDXWSc9QX89a-Wngp-1" target="TfDn30RjzXp4CmwyCraX-13">
          <mxGeometry relative="1" as="geometry" />
        </mxCell>
        <mxCell id="d73WDXWSc9QX89a-Wngp-1" value="Historical Data" style="ellipse;whiteSpace=wrap;html=1;aspect=fixed;fontFamily=Work Sans;fontSource=https%3A%2F%2Ffonts.googleapis.com%2Fcss%3Ffamily%3DWork%2BSans;fontSize=20;" vertex="1" parent="1">
          <mxGeometry x="270" y="294" width="120" height="120" as="geometry" />
        </mxCell>
        <mxCell id="TfDn30RjzXp4CmwyCraX-1" value="finding patterns in historical data" style="shape=callout;whiteSpace=wrap;html=1;perimeter=calloutPerimeter;fontFamily=Work Sans;fontSource=https%3A%2F%2Ffonts.googleapis.com%2Fcss%3Ffamily%3DWork%2BSans;fontSize=20;" vertex="1" parent="1">
          <mxGeometry x="50" y="40" width="480" height="80" as="geometry" />
        </mxCell>
        <mxCell id="TfDn30RjzXp4CmwyCraX-2" value="X&lt;br&gt;20&lt;br&gt;30&lt;br&gt;40" style="rounded=1;whiteSpace=wrap;html=1;fontFamily=Work Sans;fontSource=https%3A%2F%2Ffonts.googleapis.com%2Fcss%3Ffamily%3DWork%2BSans;fontSize=20;fillColor=#dae8fc;strokeColor=#6c8ebf;" vertex="1" parent="1">
          <mxGeometry x="670" y="50" width="60" height="270" as="geometry" />
        </mxCell>
        <mxCell id="TfDn30RjzXp4CmwyCraX-3" value="y&lt;br&gt;Yes&lt;br&gt;No&lt;br&gt;No" style="rounded=1;whiteSpace=wrap;html=1;fontFamily=Work Sans;fontSource=https%3A%2F%2Ffonts.googleapis.com%2Fcss%3Ffamily%3DWork%2BSans;fontSize=20;fillColor=#d5e8d4;strokeColor=#82b366;" vertex="1" parent="1">
          <mxGeometry x="770" y="50" width="60" height="270" as="geometry" />
        </mxCell>
        <mxCell id="TfDn30RjzXp4CmwyCraX-5" value="y = (x - a) &amp;lt;= b" style="rounded=1;whiteSpace=wrap;html=1;fontFamily=Work Sans;fontSource=https%3A%2F%2Ffonts.googleapis.com%2Fcss%3Ffamily%3DWork%2BSans;fontSize=20;fillColor=#ffe6cc;strokeColor=#d79b00;" vertex="1" parent="1">
          <mxGeometry x="560" y="290" width="380" height="60" as="geometry" />
        </mxCell>
        <mxCell id="TfDn30RjzXp4CmwyCraX-6" value="X&lt;br&gt;20&lt;br&gt;30&lt;br&gt;40" style="rounded=1;whiteSpace=wrap;html=1;fontFamily=Work Sans;fontSource=https%3A%2F%2Ffonts.googleapis.com%2Fcss%3Ffamily%3DWork%2BSans;fontSize=20;fillColor=#dae8fc;strokeColor=#6c8ebf;" vertex="1" parent="1">
          <mxGeometry x="670" y="460" width="60" height="270" as="geometry" />
        </mxCell>
        <mxCell id="TfDn30RjzXp4CmwyCraX-7" value="y&lt;br&gt;25&lt;br&gt;35&lt;br&gt;45" style="rounded=1;whiteSpace=wrap;html=1;fontFamily=Work Sans;fontSource=https%3A%2F%2Ffonts.googleapis.com%2Fcss%3Ffamily%3DWork%2BSans;fontSize=20;fillColor=#d5e8d4;strokeColor=#82b366;" vertex="1" parent="1">
          <mxGeometry x="770" y="460" width="60" height="270" as="geometry" />
        </mxCell>
        <mxCell id="TfDn30RjzXp4CmwyCraX-8" value="y = a*x + b" style="rounded=1;whiteSpace=wrap;html=1;fontFamily=Work Sans;fontSource=https%3A%2F%2Ffonts.googleapis.com%2Fcss%3Ffamily%3DWork%2BSans;fontSize=20;fillColor=#ffe6cc;strokeColor=#d79b00;" vertex="1" parent="1">
          <mxGeometry x="570" y="700" width="380" height="60" as="geometry" />
        </mxCell>
        <mxCell id="TfDn30RjzXp4CmwyCraX-9" value="(1, 5)" style="rounded=1;whiteSpace=wrap;html=1;fontFamily=Work Sans;fontSource=https%3A%2F%2Ffonts.googleapis.com%2Fcss%3Ffamily%3DWork%2BSans;fontSize=20;fillColor=#ffe6cc;strokeColor=#d79b00;" vertex="1" parent="1">
          <mxGeometry x="940" y="550" width="120" height="60" as="geometry" />
        </mxCell>
        <mxCell id="TfDn30RjzXp4CmwyCraX-10" value="(20, 0)" style="rounded=1;whiteSpace=wrap;html=1;fontFamily=Work Sans;fontSource=https%3A%2F%2Ffonts.googleapis.com%2Fcss%3Ffamily%3DWork%2BSans;fontSize=20;fillColor=#ffe6cc;strokeColor=#d79b00;" vertex="1" parent="1">
          <mxGeometry x="930" y="180" width="120" height="60" as="geometry" />
        </mxCell>
        <mxCell id="TfDn30RjzXp4CmwyCraX-11" value="summary of historical" style="shape=callout;whiteSpace=wrap;html=1;perimeter=calloutPerimeter;fontFamily=Work Sans;fontSource=https%3A%2F%2Ffonts.googleapis.com%2Fcss%3Ffamily%3DWork%2BSans;fontSize=20;" vertex="1" parent="1">
          <mxGeometry x="970" y="110" width="120" height="80" as="geometry" />
        </mxCell>
        <mxCell id="TfDn30RjzXp4CmwyCraX-12" value="allow us to compute y, given x" style="shape=callout;whiteSpace=wrap;html=1;perimeter=calloutPerimeter;fontFamily=Work Sans;fontSource=https%3A%2F%2Ffonts.googleapis.com%2Fcss%3Ffamily%3DWork%2BSans;fontSize=20;" vertex="1" parent="1">
          <mxGeometry x="980" y="450" width="120" height="120" as="geometry" />
        </mxCell>
        <mxCell id="TfDn30RjzXp4CmwyCraX-13" value="modelling, fitting" style="ellipse;whiteSpace=wrap;html=1;aspect=fixed;fontFamily=Work Sans;fontSource=https%3A%2F%2Ffonts.googleapis.com%2Fcss%3Ffamily%3DWork%2BSans;fontSize=20;" vertex="1" parent="1">
          <mxGeometry x="270" y="520" width="120" height="120" as="geometry" />
        </mxCell>
        <mxCell id="TfDn30RjzXp4CmwyCraX-15" value="prepare" style="rounded=1;whiteSpace=wrap;html=1;fontFamily=Work Sans;fontSource=https%3A%2F%2Ffonts.googleapis.com%2Fcss%3Ffamily%3DWork%2BSans;fontSize=20;" vertex="1" parent="1">
          <mxGeometry x="280" y="450" width="120" height="30" as="geometry" />
        </mxCell>
        <mxCell id="TfDn30RjzXp4CmwyCraX-22" style="edgeStyle=orthogonalEdgeStyle;rounded=0;orthogonalLoop=1;jettySize=auto;html=1;exitX=1;exitY=0.5;exitDx=0;exitDy=0;entryX=0;entryY=0.5;entryDx=0;entryDy=0;fontFamily=Work Sans;fontSource=https%3A%2F%2Ffonts.googleapis.com%2Fcss%3Ffamily%3DWork%2BSans;fontSize=20;" edge="1" parent="1" source="TfDn30RjzXp4CmwyCraX-18" target="TfDn30RjzXp4CmwyCraX-20">
          <mxGeometry relative="1" as="geometry" />
        </mxCell>
        <mxCell id="TfDn30RjzXp4CmwyCraX-18" value="(a, b)" style="rounded=1;whiteSpace=wrap;html=1;fontFamily=Work Sans;fontSource=https%3A%2F%2Ffonts.googleapis.com%2Fcss%3Ffamily%3DWork%2BSans;fontSize=20;" vertex="1" parent="1">
          <mxGeometry x="270" y="740" width="120" height="35" as="geometry" />
        </mxCell>
        <mxCell id="TfDn30RjzXp4CmwyCraX-21" style="edgeStyle=orthogonalEdgeStyle;rounded=0;orthogonalLoop=1;jettySize=auto;html=1;exitX=1;exitY=0.5;exitDx=0;exitDy=0;fontFamily=Work Sans;fontSource=https%3A%2F%2Ffonts.googleapis.com%2Fcss%3Ffamily%3DWork%2BSans;fontSize=20;" edge="1" parent="1" source="TfDn30RjzXp4CmwyCraX-19" target="TfDn30RjzXp4CmwyCraX-18">
          <mxGeometry relative="1" as="geometry" />
        </mxCell>
        <mxCell id="TfDn30RjzXp4CmwyCraX-19" value="Xnew&lt;br&gt;21&lt;br&gt;32&lt;br&gt;43" style="rounded=1;whiteSpace=wrap;html=1;fontFamily=Work Sans;fontSource=https%3A%2F%2Ffonts.googleapis.com%2Fcss%3Ffamily%3DWork%2BSans;fontSize=20;fillColor=#dae8fc;strokeColor=#6c8ebf;" vertex="1" parent="1">
          <mxGeometry x="170" y="680" width="60" height="212.5" as="geometry" />
        </mxCell>
        <mxCell id="TfDn30RjzXp4CmwyCraX-20" value="ypred&lt;br&gt;No&lt;br&gt;No&lt;br&gt;No" style="rounded=1;whiteSpace=wrap;html=1;fontFamily=Work Sans;fontSource=https%3A%2F%2Ffonts.googleapis.com%2Fcss%3Ffamily%3DWork%2BSans;fontSize=20;fillColor=#f8cecc;strokeColor=#b85450;" vertex="1" parent="1">
          <mxGeometry x="430" y="670" width="70" height="222.5" as="geometry" />
        </mxCell>
        <mxCell id="TfDn30RjzXp4CmwyCraX-24" value="PREDICTION" style="swimlane;startSize=0;fontFamily=Work Sans;fontSource=https%3A%2F%2Ffonts.googleapis.com%2Fcss%3Ffamily%3DWork%2BSans;fontSize=20;" vertex="1" parent="1">
          <mxGeometry x="110" y="660" width="430" height="280" as="geometry" />
        </mxCell>
        <mxCell id="TfDn30RjzXp4CmwyCraX-25" value="Evaluation" style="ellipse;whiteSpace=wrap;html=1;aspect=fixed;fontFamily=Work Sans;fontSource=https%3A%2F%2Ffonts.googleapis.com%2Fcss%3Ffamily%3DWork%2BSans;fontSize=20;" vertex="1" parent="1">
          <mxGeometry x="110" y="1000" width="160" height="160" as="geometry" />
        </mxCell>
        <mxCell id="TfDn30RjzXp4CmwyCraX-26" value="Xnew&lt;br&gt;21&lt;br&gt;32&lt;br&gt;43" style="rounded=1;whiteSpace=wrap;html=1;fontFamily=Work Sans;fontSource=https%3A%2F%2Ffonts.googleapis.com%2Fcss%3Ffamily%3DWork%2BSans;fontSize=20;fillColor=#dae8fc;strokeColor=#6c8ebf;" vertex="1" parent="1">
          <mxGeometry x="290" y="990" width="60" height="212.5" as="geometry" />
        </mxCell>
        <mxCell id="TfDn30RjzXp4CmwyCraX-27" value="ypred&lt;br&gt;No&lt;br&gt;No&lt;br&gt;No" style="rounded=1;whiteSpace=wrap;html=1;fontFamily=Work Sans;fontSource=https%3A%2F%2Ffonts.googleapis.com%2Fcss%3Ffamily%3DWork%2BSans;fontSize=20;fillColor=#f8cecc;strokeColor=#b85450;" vertex="1" parent="1">
          <mxGeometry x="410" y="980" width="70" height="222.5" as="geometry" />
        </mxCell>
        <mxCell id="TfDn30RjzXp4CmwyCraX-28" value="(a, b)" style="rounded=1;whiteSpace=wrap;html=1;fontFamily=Work Sans;fontSource=https%3A%2F%2Ffonts.googleapis.com%2Fcss%3Ffamily%3DWork%2BSans;fontSize=20;fillColor=#f8cecc;strokeColor=#b85450;" vertex="1" parent="1">
          <mxGeometry x="330" y="1170" width="120" height="35" as="geometry" />
        </mxCell>
        <mxCell id="TfDn30RjzXp4CmwyCraX-29" value="y&lt;br&gt;Yes&lt;br&gt;No&lt;br&gt;No" style="rounded=1;whiteSpace=wrap;html=1;fontFamily=Work Sans;fontSource=https%3A%2F%2Ffonts.googleapis.com%2Fcss%3Ffamily%3DWork%2BSans;fontSize=20;fillColor=#d5e8d4;strokeColor=#82b366;" vertex="1" parent="1">
          <mxGeometry x="555" y="980" width="60" height="220" as="geometry" />
        </mxCell>
        <mxCell id="TfDn30RjzXp4CmwyCraX-30" value="ypred&lt;br&gt;0&lt;br&gt;0&lt;br&gt;0" style="rounded=1;whiteSpace=wrap;html=1;fontFamily=Work Sans;fontSource=https%3A%2F%2Ffonts.googleapis.com%2Fcss%3Ffamily%3DWork%2BSans;fontSize=20;fillColor=#f8cecc;strokeColor=#b85450;" vertex="1" parent="1">
          <mxGeometry x="410" y="1250" width="70" height="222.5" as="geometry" />
        </mxCell>
        <mxCell id="TfDn30RjzXp4CmwyCraX-31" value="y&lt;br&gt;1&lt;br&gt;0&lt;br&gt;0" style="rounded=1;whiteSpace=wrap;html=1;fontFamily=Work Sans;fontSource=https%3A%2F%2Ffonts.googleapis.com%2Fcss%3Ffamily%3DWork%2BSans;fontSize=20;fillColor=#d5e8d4;strokeColor=#82b366;" vertex="1" parent="1">
          <mxGeometry x="555" y="1250" width="60" height="220" as="geometry" />
        </mxCell>
        <mxCell id="TfDn30RjzXp4CmwyCraX-32" value="how often are they equal?" style="rounded=1;whiteSpace=wrap;html=1;fontFamily=Work Sans;fontSource=https%3A%2F%2Ffonts.googleapis.com%2Fcss%3Ffamily%3DWork%2BSans;fontSize=20;" vertex="1" parent="1">
          <mxGeometry x="390" y="1500" width="270" height="69" as="geometry" />
        </mxCell>
        <mxCell id="TfDn30RjzXp4CmwyCraX-33" value="66%" style="rounded=1;whiteSpace=wrap;html=1;fontFamily=Work Sans;fontSource=https%3A%2F%2Ffonts.googleapis.com%2Fcss%3Ffamily%3DWork%2BSans;fontSize=20;" vertex="1" parent="1">
          <mxGeometry x="680" y="1500" width="110" height="69" as="geometry" />
        </mxCell>
        <mxCell id="TfDn30RjzXp4CmwyCraX-35" value="Deploy" style="ellipse;whiteSpace=wrap;html=1;aspect=fixed;fontFamily=Work Sans;fontSource=https%3A%2F%2Ffonts.googleapis.com%2Fcss%3Ffamily%3DWork%2BSans;fontSize=20;" vertex="1" parent="1">
          <mxGeometry x="120" y="1640" width="160" height="160" as="geometry" />
        </mxCell>
      </root>
    </mxGraphModel>
  </diagram>
  <diagram id="6Fw7poCprMeg4qewWKy2" name="WhatIsTheMethodOfML?">
    <mxGraphModel dx="1798" dy="884" grid="1" gridSize="10" guides="1" tooltips="1" connect="1" arrows="1" fold="1" page="1" pageScale="1" pageWidth="1169" pageHeight="827" math="0" shadow="0">
      <root>
        <mxCell id="0" />
        <mxCell id="1" parent="0" />
        <mxCell id="OsYjdBJB8fGVJy20ogj9-1" value="What is ML?" style="ellipse;shape=cloud;whiteSpace=wrap;html=1;fillColor=#FFFF33;strokeColor=none;fontFamily=Barlow Condensed;fontSource=https%3A%2F%2Ffonts.googleapis.com%2Fcss%3Ffamily%3DBarlow%2BCondensed;fontSize=32;fontStyle=1" parent="1" vertex="1">
          <mxGeometry x="50" y="60" width="386.26" height="230" as="geometry" />
        </mxCell>
      </root>
    </mxGraphModel>
  </diagram>
</mxfile>
